HIERARCHY
ROOT Hips
{
	OFFSET 0.00000 0.00000 0.00000
	CHANNELS 6 Xposition Yposition Zposition Zrotation Yrotation Xrotation 
	JOINT LHipJoint
	{
		OFFSET 0 0 0
		CHANNELS 3 Zrotation Yrotation Xrotation
		JOINT LeftHip
		{
			OFFSET 1.57358 -1.76629 0.73362
			CHANNELS 3 Zrotation Yrotation Xrotation
			JOINT LeftKnee
			{
				OFFSET 2.40600 -6.61045 0.00000
				CHANNELS 3 Zrotation Yrotation Xrotation
				JOINT LeftAnkle
				{
					OFFSET 2.66168 -7.31291 0.00000
					CHANNELS 3 Zrotation Yrotation Xrotation
					JOINT LeftToe
					{
						OFFSET 0.20870 -0.57341 2.12506
						CHANNELS 3 Zrotation Yrotation Xrotation
						End Site
						{
							OFFSET 0.00000 -0.00000 1.10557
						}
					}
				}
			}
		}
	}
	JOINT RHipJoint
	{
		OFFSET 0 0 0
		CHANNELS 3 Zrotation Yrotation Xrotation
		JOINT RightHip
		{
			OFFSET -1.49299 -1.76629 0.73362
			CHANNELS 3 Zrotation Yrotation Xrotation
			JOINT RightKnee
			{
				OFFSET -2.43663 -6.69460 0.00000
				CHANNELS 3 Zrotation Yrotation Xrotation
				JOINT RightAnkle
				{
					OFFSET -2.62959 -7.22474 0.00000
					CHANNELS 3 Zrotation Yrotation Xrotation
					JOINT RightToe
					{
						OFFSET -0.25784 -0.70841 2.21862
						CHANNELS 3 Zrotation Yrotation Xrotation
						End Site
						{
							OFFSET -0.00000 -0.00000 1.16452
						}
					}
				}
			}
		}
	}
	JOINT lowerback
	{
		OFFSET 0 0 0
		CHANNELS 3 Zrotation Yrotation Xrotation
		JOINT Chest
		{
			OFFSET -0.00034 2.12399 -0.25450
			CHANNELS 3 Zrotation Yrotation Xrotation
			JOINT Chest2
			{
				OFFSET 0.05594 2.14379 -0.03318
				CHANNELS 3 Zrotation Yrotation Xrotation
				JOINT lowerneck
				{
					OFFSET 0 0 0
					CHANNELS 3 Zrotation Yrotation Xrotation
					JOINT Neck
					{
						OFFSET -0.09835 1.62725 0.24211
						CHANNELS 3 Zrotation Yrotation Xrotation
						JOINT Head
						{
							OFFSET 0.10849 1.66041 -0.22648
							CHANNELS 3 Zrotation Yrotation Xrotation
							End Site
							{
								OFFSET 0.04385 1.68267 -0.10541
							}
						}
					}
				}
				JOINT LeftCollar
				{
					OFFSET 0 0 0
					CHANNELS 3 Zrotation Yrotation Xrotation
					JOINT LeftShoulder
					{
						OFFSET 3.29108 0.79398 -0.68179
CHANNELS 3 Zrotation Xrotation Yrotation
						JOINT LeftElbow
						{
OFFSET 0 -5.153100 -0.000000
CHANNELS 3 Zrotation Xrotation Yrotation
							JOINT LeftWrist
							{
OFFSET 0 -3.751380 -0.000000
CHANNELS 3 Zrotation Xrotation Yrotation
								JOINT lhand
								{
									OFFSET 0 0 0
CHANNELS 3 Zrotation Xrotation Yrotation
									JOINT LFingers
									{
OFFSET 0 -0.529170 0.000000
CHANNELS 3 Zrotation Xrotation Yrotation
										End Site
										{
OFFSET 0 -0.426630 0.000000
										}
									}
								}
								JOINT LThumb
								{
OFFSET 0 0.000000 0.000000
CHANNELS 3 Zrotation Xrotation Yrotation
									End Site
									{
OFFSET 0 -0.433150 0.433150
									}
								}
							}
						}
					}
				}
				JOINT RightCollar
				{
					OFFSET 0 0 0
					CHANNELS 3 Zrotation Yrotation Xrotation
					JOINT RightShoulder
					{
						OFFSET -3.07414 1.06285 -0.44338
CHANNELS 3 Zrotation Xrotation Yrotation
						JOINT RightElbow
						{
OFFSET 0 -5.296130 0.000000
CHANNELS 3 Zrotation Xrotation Yrotation
							JOINT RightWrist
							{
OFFSET 0 -3.761440 -0.000000
CHANNELS 3 Zrotation Xrotation Yrotation
								JOINT rhand
								{
									OFFSET 0 0 0
CHANNELS 3 Zrotation Xrotation Yrotation
									JOINT RFingers
									{
OFFSET 0 -0.747320 0.000000
CHANNELS 3 Zrotation Xrotation Yrotation
										End Site
										{
OFFSET 0 -0.602510 0.000000
										}
									}
								}
								JOINT RThumb
								{
OFFSET 0 0.000000 0.000000
CHANNELS 3 Zrotation Xrotation Yrotation
									End Site
									{
OFFSET 0 -0.611710 0.611710
									}
								}
							}
						}
					}
				}
			}
		}
	}
}
MOTION
Frames: 4
Frame Time: 0.008333333333333333
0.551900 17.517500 -28.359800 6.305700 -2.505600 10.582400 0.000000 0.000000 0.000000 -29.780400 1.488300 20.168000 0.712600 5.395000 15.038600 4.011600 3.123400 37.296100 0.000000 0.013200 0.036200 0.000000 0.000000 0.000000 9.472300 13.374100 -52.529500 -7.997900 -16.117700 52.555200 -0.014900 -2.208000 2.488900 -0.653400 5.170400 -14.395100 -7.042800 -1.877400 8.393400 1.983100 -3.114000 -0.705900 6.441500 -1.322100 -4.973400 -9.846000 -1.070700 -19.400400 6.472800 0.179000 10.093800 3.707100 0.244100 6.196700 -0.000000 0.000000 0.000000 5.418800 -2.783500 -42.592800 156.996100 -34.093100 112.859500 14.618600 -23.122800 -4.380200 0.000000 0.000000 0.000000 -7.125000 0.000000 0.000000 -9.897900 34.373600 -2.614000 -0.000000 0.000000 0.000000 -8.841500 44.711500 36.760800 -130.042100 -52.978500 -93.859500 -21.568800 -26.492000 -31.935500 0.000000 0.000000 0.000000 7.125000 0.000000 -0.000000 5.728700 -3.701100 6.116400
0.551229 17.530028 -28.221751 6.403035 -2.580094 10.614770 0.000000 0.000000 0.000000 -29.928762 1.463648 20.356003 0.721302 5.426744 15.129827 3.943124 2.818757 37.027250 0.017337 -0.391574 -1.077611 0.000000 0.000000 0.000000 9.416642 13.407924 -52.278099 -7.624646 -15.809522 51.153591 -0.025325 -2.324193 2.942576 -0.630962 5.079486 -14.135981 -7.083515 -1.887333 8.377338 1.958067 -3.131986 -0.722074 6.439598 -1.329527 -4.977941 -9.818193 -1.095442 -19.435969 6.396941 0.154974 10.007561 3.674059 0.228866 6.176790 0.000000 0.000000 0.000000 5.600651 -2.768445 -42.708277 156.954245 -34.138736 112.835966 14.445317 -23.011171 -4.572028 0.000000 0.000000 0.000000 -7.125000 0.000000 0.000000 -10.067290 34.560238 -2.610868 0.000000 0.000000 0.000000 -8.759981 44.739463 36.579732 -130.152342 -52.933535 -93.947394 -21.655844 -26.513163 -31.936238 0.000000 0.000000 0.000000 7.125000 0.000000 0.000000 5.679731 -3.720383 6.065350
0.550558 17.542555 -28.083702 6.500369 -2.654588 10.647141 0.000000 0.000000 0.000000 -30.077124 1.438995 20.544005 0.730004 5.458488 15.221055 3.874647 2.514114 36.758400 0.034674 -0.796348 -2.191421 0.000000 0.000000 0.000000 9.360984 13.441749 -52.026698 -7.251392 -15.501345 49.751983 -0.035749 -2.440386 3.396252 -0.608525 4.988572 -13.876862 -7.124229 -1.897265 8.361276 1.933035 -3.149972 -0.738248 6.437697 -1.336954 -4.982482 -9.790387 -1.120184 -19.471539 6.321082 0.130948 9.921323 3.641017 0.213631 6.156880 0.000000 0.000000 0.000000 5.782502 -2.753389 -42.823754 156.912389 -34.184372 112.812432 14.272034 -22.899541 -4.763856 0.000000 0.000000 0.000000 -7.125000 0.000000 0.000000 -10.236681 34.746876 -2.607736 0.000000 0.000000 0.000000 -8.678463 44.767427 36.398664 -130.262585 -52.888570 -94.035288 -21.742888 -26.534325 -31.936976 0.000000 0.000000 0.000000 7.125000 0.000000 0.000000 5.630761 -3.739667 6.014301
0.549887 17.555083 -27.945653 6.597704 -2.729082 10.679511 0.000000 0.000000 0.000000 -30.225486 1.414343 20.732008 0.738707 5.490232 15.312282 3.806171 2.209471 36.489550 0.052012 -1.201122 -3.305232 0.000000 0.000000 0.000000 9.305326 13.475573 -51.775297 -6.878139 -15.193167 48.350374 -0.046174 -2.556579 3.849928 -0.586087 4.897657 -13.617743 -7.164944 -1.907198 8.345214 1.908002 -3.167958 -0.754422 6.435795 -1.344381 -4.987024 -9.762580 -1.144926 -19.507108 6.245224 0.106922 9.835084 3.607976 0.198397 6.136970 0.000000 0.000000 0.000000 5.964352 -2.738334 -42.939231 156.870534 -34.230008 112.788898 14.098752 -22.787912 -4.955684 0.000000 0.000000 0.000000 -7.125000 0.000000 0.000000 -10.406071 34.933514 -2.604604 0.000000 0.000000 0.000000 -8.596944 44.795390 36.217597 -130.372827 -52.843605 -94.123182 -21.829932 -26.555488 -31.937715 0.000000 0.000000 0.000000 7.125000 0.000000 0.000000 5.581792 -3.758950 5.963251
